# xmcd
#
# Track frame offsets: 
#        150
#        33053
#        48780
#        62923
#
# Disc length: 1038 seconds
#
# Revision: 0
# Processed by: cddbd v1.4PL0 Copyright (c) Steve Scherf et al.
# Submitted via: ExactAudioCopy v0.90b4
#
DISCID=28040c04
DTITLE=Rosie Gaines feat. De Ric De - Hardwork
DYEAR=1990
DGENRE=Dance
TTITLE0=Hard Work (Hype-Dance Remix)
TTITLE1=One more Night
TTITLE2=Hard Work (Hype Dance Radio Edit)
TTITLE3=Hard Work (US Radio Mix)
EXTD=
EXTT0=
EXTT1=
EXTT2=
EXTT3=
PLAYORDER=
